# Blender v2.91.0 OBJ File: 'luphanukkah.blend'
# www.blender.org
o Cube
v 0.091349 0.500000 -0.091349
v 0.000000 -0.500000 0.000000
v 0.091349 0.500000 0.091349
v 0.091349 0.250000 0.091349
v -0.091349 0.500000 -0.091349
v 0.091349 0.250000 -0.091349
v -0.091349 0.500000 0.091349
v -0.091349 0.250000 0.091349
v 0.300000 0.250000 -0.300000
v -0.300000 0.250000 0.300000
v 0.300000 0.250000 0.300000
v -0.300000 0.250000 -0.300000
v 0.300000 -0.250000 -0.300000
v 0.300000 -0.250000 0.300000
v -0.300000 -0.250000 -0.300000
v -0.300000 -0.250000 0.300000
v -0.091349 0.250000 -0.091349
vt 0.083799 0.753589
vt 0.185076 0.753589
vt 0.185076 0.854866
vt 0.083799 0.854866
vt 0.462962 0.770215
vt 0.462962 0.631630
vt 0.564239 0.631630
vt 0.564239 0.770215
vt 0.385361 0.764213
vt 0.385361 0.625629
vt 0.486638 0.625629
vt 0.486638 0.764214
vt 0.554047 0.623052
vt 0.435134 0.735371
vt 0.333898 0.732484
vt 0.221579 0.613571
vt 0.312884 0.788821
vt 0.312884 0.650236
vt 0.414161 0.650236
vt 0.414161 0.788821
vt 0.554811 0.621880
vt 0.693339 0.625830
vt 0.690453 0.727066
vt 0.551924 0.723116
vt 0.296006 0.365833
vt 0.296006 0.556791
vt 0.066857 0.556791
vt 0.066857 0.365833
vt 0.932001 0.373236
vt 0.931293 0.556457
vt 0.711427 0.555607
vt 0.712136 0.372386
vt 0.518550 0.365180
vt 0.518550 0.562028
vt 0.282332 0.562028
vt 0.282332 0.365180
vt 0.727074 0.374063
vt 0.727624 0.561297
vt 0.502943 0.561957
vt 0.502393 0.374722
vt 0.891623 0.836526
vt 0.627864 0.766171
vt 0.891623 0.563546
vt 0.628439 0.764052
vt 0.893817 0.563555
vt 0.627864 0.766171
vt 0.891623 0.563546
vt 0.892079 0.834848
vt 0.628439 0.764052
vt 0.892535 0.561868
vt 0.884372 0.733326
vt 0.765458 0.845645
vt 0.664222 0.842758
vt 0.551903 0.723845
vt 0.523016 0.854449
vt 0.407353 0.738786
vt 0.407353 0.637509
vt 0.523016 0.521845
vt 0.506448 0.862037
vt 0.390784 0.746373
vt 0.390784 0.645097
vt 0.506448 0.529433
vn 0.0000 1.0000 0.0000
vn 0.0000 0.0000 1.0000
vn -1.0000 0.0000 0.0000
vn 1.0000 0.0000 0.0000
vn 0.0000 0.0000 -1.0000
vn 0.0000 -0.7682 0.6402
vn -0.6402 -0.7682 0.0000
vn 0.6402 -0.7682 0.0000
vn 0.0000 -0.7682 -0.6402
s off
f 1/1/1 5/2/1 7/3/1 3/4/1
f 4/5/2 3/6/2 7/7/2 8/8/2
f 8/9/3 7/10/3 5/11/3 17/12/3
f 9/13/1 6/14/1 4/15/1 11/16/1
f 6/17/4 1/18/4 3/19/4 4/20/4
f 17/21/5 5/22/5 1/23/5 6/24/5
f 15/25/5 12/26/5 9/27/5 13/28/5
f 13/29/4 9/30/4 11/31/4 14/32/4
f 16/33/3 10/34/3 12/35/3 15/36/3
f 14/37/2 11/38/2 10/39/2 16/40/2
f 2/41/6 14/42/6 16/43/6
f 2/41/7 16/44/7 15/45/7
f 2/41/8 13/46/8 14/47/8
f 2/48/9 15/49/9 13/50/9
f 12/51/1 17/52/1 6/53/1 9/54/1
f 10/55/1 8/56/1 17/57/1 12/58/1
f 11/59/1 4/60/1 8/61/1 10/62/1
